<svg width="24" height="25" viewBox="0 0 24 25" fill="none" xmlns="http://www.w3.org/2000/svg">
<path d="M21.0024 5.25879H16.0477C16.0219 5.25879 16.0008 5.23682 16.0008 5.20996C15.9891 4.65576 15.7711 4.15283 15.4102 3.7793C15.0493 3.40332 14.55 3.17383 13.9993 3.17383C12.9 3.17383 12 4.10156 12 5.25635C12 4.68262 11.7797 4.1626 11.4094 3.77686C11.0485 3.40088 10.5493 3.17139 9.99849 3.17139C8.91333 3.17139 8.0227 4.07227 7.99927 5.20752C7.99927 5.23438 7.97817 5.25635 7.95239 5.25635H3.00005C2.44927 5.25635 1.99927 5.7251 1.99927 6.29883V10.4663C1.99927 10.9839 2.37427 11.3989 2.85239 11.4771H21.15C21.6282 11.3989 22.0032 10.9863 22.0032 10.4663V6.30127C22.0032 5.72754 21.5532 5.25879 21.0024 5.25879Z" fill="white"/>
<path d="M4.00073 12.5684V20.8838C4.00073 21.46 4.44839 21.9263 5.00151 21.9263H19.0031C19.5562 21.9263 20.0039 21.46 20.0039 20.8838V12.5684C20.0039 12.5415 19.9828 12.5195 19.957 12.5195H4.04761C4.02183 12.5195 4.00073 12.5415 4.00073 12.5684ZM14.1234 16.4111L12.7101 17.8833C12.5156 18.0859 12.2601 18.1885 12.0023 18.1885C11.7445 18.1885 11.4914 18.0859 11.2945 17.8833L9.87886 16.4111C9.48745 16.0034 9.48745 15.3442 9.87886 14.939C10.0734 14.7363 10.3289 14.6338 10.5867 14.6338C10.8421 14.6338 11.0976 14.7363 11.2945 14.939L11.9695 15.6421C11.9882 15.6616 12.0187 15.6616 12.0351 15.6421L12.7101 14.939C12.9046 14.7363 13.1601 14.6338 13.4179 14.6338C13.6734 14.6338 13.9289 14.7363 14.1257 14.939C14.5125 15.3442 14.5124 16.0034 14.1234 16.4111Z" fill="white"/>
</svg>

